<svg xmlns="http://www.w3.org/2000/svg" viewBox="0 0 24 24" fill="white">
  <path d="M12.04 3C7.6 3 5 6.13 5 9.4c0 1.6.87 3.6 2.27 4.24.21.1.33.06.38-.15.04-.16.22-.95.3-1.32a.34.34 0 0 0-.08-.31c-.46-.55-.84-1.56-.84-2.5 0-2.41 1.83-4.74 5.1-4.74 2.78 0 4.74 1.8 4.74 4.4 0 3-1.33 5.53-3.31 5.53-1.09 0-1.91-.9-1.65-2 .31-1.33.92-2.77.92-3.73 0-.86-.46-1.57-1.4-1.57-1.11 0-2 1.15-2 2.7 0 .99.33 1.66.33 1.66s-1.13 4.8-1.33 5.64c-.4 1.7-.06 3.78-.03 3.99l.02.13.14.04c.53.16 1.08.26 1.65.26 1.9 0 3.63-.87 4.72-2.18 1.14-1.35 1.78-3.14 1.78-5.08C18.5 6.61 15.73 3 12.04 3z"/>
</svg>
