<svg xmlns="http://www.w3.org/2000/svg" viewBox="0 0 24 24" fill="white">
  <path d="M12 3c2.9 0 5.25 2.35 5.25 5.25v.12c0 .93.54 1.78 1.39 2.19.3.14.51.45.51.8 0 .53-.45.9-.96 1.02-.76.18-1.41.56-1.41.94 0 .21.18.35.43.49.43.23.97.51.97.97 0 .4-.3.75-.7.83-.87.18-1.36.66-1.36 1.32 0 .38.14.57.3.73.2.2.4.4.4.77 0 .44-.36.8-.8.8-.37 0-.71.14-1.03.35a4.84 4.84 0 0 1-5.2 0 2.3 2.3 0 0 0-1.03-.35.8.8 0 0 1-.8-.8c0-.36.2-.57.4-.77.16-.16.3-.35.3-.73 0-.66-.49-1.14-1.36-1.32-.4-.08-.7-.43-.7-.83 0-.46.54-.74.97-.97.25-.14.43-.28.43-.49 0-.38-.65-.76-1.41-.94-.51-.12-.96-.49-.96-1.02 0-.35.21-.66.51-.8.85-.41 1.39-1.26 1.39-2.19V8.25C6.75 5.35 9.1 3 12 3z"/>
</svg>
