<svg width="48" height="48" viewBox="0 0 48 48" fill="none" xmlns="http://www.w3.org/2000/svg">
  <!-- Simple "B" letterform -->
  <path d="M14 10h10c4 0 7 2.5 7 6 0 2-1 4-3 5 2.5 0.5 5 2.5 5 6.5 0 4-3 6.5-7.5 6.5H14V10zm4 10h5c2 0 3.5-1.2 3.5-3s-1.5-3-3.5-3h-5v6zm0 10h6c2.2 0 3.5-1.5 3.5-3.5s-1.3-3.5-3.5-3.5h-6v7z" fill="url(#grad)" fill-opacity="0.95"/>
  
  <!-- Subtle dot accent -->
  <circle cx="35" cy="13" r="2.5" fill="#34D399" opacity="0.9"/>
  
  <defs>
    <linearGradient id="grad" x1="14" y1="10" x2="33" y2="34">
      <stop offset="0%" stop-color="#3E8BFF"/>
      <stop offset="100%" stop-color="#6B70FF"/>
    </linearGradient>
  </defs>
</svg>
